<?xml version="1.0" standalone="no"?>
<!DOCTYPE svg PUBLIC "-//W3C//DTD SVG 20010904//EN"
 "http://www.w3.org/TR/2001/REC-SVG-20010904/DTD/svg10.dtd">
<svg version="1.0" xmlns="http://www.w3.org/2000/svg"
 width="250.000000pt" height="250.000000pt" viewBox="0 0 250.000000 250.000000"
 preserveAspectRatio="xMidYMid meet">
<metadata>
Created by potrace 1.14, written by Peter Selinger 2001-2017
</metadata>
<g transform="translate(0.000000,250.000000) scale(0.100000,-0.100000)"
fill="#000000" stroke="none">
<path d="M1149 2378 c-134 -96 -228 -170 -260 -204 -48 -53 -89 -110 -89 -125
0 -7 20 14 45 47 24 32 64 75 87 96 24 20 62 52 84 72 41 36 64 45 64 26 0
-14 -39 -90 -46 -90 -2 0 0 9 6 21 22 41 3 43 -37 4 -70 -68 -216 -283 -231
-338 -9 -32 -8 -41 7 -56 10 -10 21 -25 24 -32 3 -8 6 -5 6 9 1 12 5 22 11 22
5 0 18 10 30 22 11 12 20 18 20 13 0 -10 -51 -79 -62 -83 -4 -2 -8 -9 -8 -15
0 -7 -14 -25 -31 -41 -55 -52 -164 -232 -251 -413 -33 -70 -64 -130 -67 -133
-3 -3 -7 -16 -9 -30 l-2 -25 27 29 c14 16 28 38 29 50 4 35 51 140 64 144 9 3
10 -4 5 -27 -4 -19 -3 -31 4 -31 15 0 83 94 126 175 48 89 114 204 134 232 31
43 29 22 -4 -44 -19 -38 -38 -85 -44 -106 l-10 -39 24 16 c39 26 36 19 -27
-47 -32 -34 -61 -74 -65 -89 -3 -15 -10 -25 -15 -22 -10 7 -47 -32 -86 -91
-15 -22 -56 -70 -92 -108 -36 -37 -73 -82 -82 -100 -22 -38 -23 -121 -4 -192
17 -65 74 -203 97 -236 10 -14 16 -29 14 -33 -3 -3 -2 -4 1 -1 4 2 27 -12 53
-32 25 -21 52 -41 59 -46 23 -18 12 2 -23 39 -45 48 -44 53 3 15 64 -52 97
-85 121 -121 27 -41 101 -104 157 -134 21 -12 82 -47 134 -78 53 -31 122 -69
153 -84 l58 -29 82 42 c183 94 333 191 386 250 121 136 201 207 201 179 0 -9
-4 -16 -8 -16 -4 0 -25 -16 -46 -35 -47 -43 -39 -45 19 -5 58 40 106 98 129
157 22 54 30 62 66 64 23 0 23 1 5 8 -11 5 -23 7 -27 5 -9 -6 0 44 13 68 14
25 24 184 13 191 -5 3 -9 -14 -8 -38 2 -63 -11 -76 -31 -29 -9 21 -29 59 -45
85 -33 50 -38 68 -15 49 23 -19 18 -2 -10 35 -14 18 -21 35 -16 37 6 1 -5 21
-24 43 -19 22 -35 43 -35 46 0 9 -87 116 -132 165 -21 21 -36 44 -34 50 2 6
-22 38 -55 70 -32 32 -59 64 -59 71 0 7 -4 12 -8 11 -5 -2 -49 26 -98 60 -130
93 -220 144 -257 146 -32 3 -79 -18 -169 -74 -63 -39 -61 -31 5 17 136 99 156
103 260 43 38 -22 72 -39 74 -37 2 3 -7 11 -19 20 -13 8 -45 35 -73 61 l-49
45 39 -10 c22 -6 52 -17 67 -25 15 -8 32 -14 37 -14 16 0 23 42 12 70 -9 24
-10 24 -10 -7 -1 -46 -21 -41 -23 5 -2 48 -4 84 -6 99 -1 7 -24 37 -50 66 -65
72 -78 104 -63 163 10 39 9 50 -4 70 -9 14 -25 24 -38 24 -26 0 -102 -33 -111
-49 -4 -6 -9 -42 -11 -79 -7 -105 -20 -128 -153 -271 -45 -48 -40 -33 16 54
18 27 30 55 28 62 -3 7 15 55 39 106 24 52 47 106 50 120 7 28 38 52 79 63 32
8 35 24 4 18 -13 -2 -7 2 12 10 26 11 30 15 14 15 -12 1 -41 -13 -65 -31z
m251 -373 c0 -5 -5 -3 -10 5 -5 8 -10 20 -10 25 0 6 5 3 10 -5 5 -8 10 -19 10
-25z m-68 -206 c73 -37 152 -95 224 -164 38 -36 59 -60 47 -53 -35 20 -38 2
-9 -43 15 -22 26 -42 24 -44 -2 -2 -37 26 -78 62 -82 71 -179 133 -251 159
l-46 17 -66 -31 c-37 -17 -87 -45 -112 -62 -25 -17 -45 -27 -45 -23 0 5 9 14
21 21 12 7 18 16 15 19 -3 3 -13 0 -23 -8 -10 -8 -5 3 11 25 28 37 28 38 5 25
-24 -12 -79 -49 -89 -59 -3 -3 -14 -11 -25 -19 -11 -7 1 6 26 30 59 57 192
149 238 165 45 15 78 11 133 -17z m-12 -108 c98 -49 244 -167 423 -342 l67
-67 0 36 0 35 18 -24 c23 -31 98 -167 84 -154 -5 6 -26 30 -46 53 -20 24 -36
40 -36 35 0 -4 14 -24 30 -43 33 -38 110 -147 110 -156 0 -3 11 -29 25 -57 13
-29 27 -71 31 -94 3 -24 10 -40 15 -37 5 3 9 1 9 -5 0 -5 -4 -12 -9 -15 -5 -3
-14 -27 -20 -53 -13 -51 -69 -153 -84 -153 -5 0 -2 11 7 25 9 14 21 37 26 53
l10 27 -22 -26 c-13 -14 -38 -44 -56 -66 -19 -23 -50 -49 -70 -59 -21 -11 -42
-26 -49 -34 -38 -49 -42 -50 -18 -3 15 28 32 50 39 48 6 -2 24 12 40 31 22 27
24 33 10 28 -17 -5 -17 -4 1 10 39 30 46 38 40 44 -3 4 -10 0 -15 -8 -8 -12
-10 -12 -10 -1 0 8 -6 11 -16 7 -12 -4 -9 4 10 28 14 19 26 37 26 39 0 15
-185 -180 -208 -220 -16 -26 -46 -75 -67 -108 -21 -33 -31 -54 -21 -46 9 8 38
46 62 84 50 77 69 86 28 14 -24 -45 -21 -64 6 -32 7 8 17 15 22 15 13 0 -66
-70 -156 -139 -39 -30 -73 -57 -76 -60 -15 -18 -85 -63 -156 -101 l-82 -43
-28 20 c-16 11 -58 36 -94 55 -36 20 -86 54 -110 75 -25 21 -70 57 -101 80
-30 23 -68 56 -85 72 -21 21 -32 27 -41 19 -10 -8 -13 -5 -13 11 0 28 8 27 42
-6 28 -27 37 -18 18 18 -6 10 -7 19 -2 19 4 0 21 -22 37 -50 16 -27 35 -52 42
-54 7 -3 -3 20 -23 52 -21 31 -52 82 -70 112 -18 30 -62 81 -98 113 -109 96
-166 199 -166 302 0 36 -3 46 -10 35 -27 -41 0 -164 48 -216 32 -35 68 -89 54
-80 -6 3 -12 1 -14 -5 -3 -8 -10 -6 -21 5 -9 10 -17 14 -17 9 1 -12 21 -35 60
-67 19 -16 27 -27 18 -23 -29 10 1 -30 39 -54 17 -11 36 -33 42 -50 l11 -31
-33 35 c-17 19 -46 41 -63 50 -16 9 -46 35 -65 58 -66 83 -88 105 -89 88 0 -9
11 -33 25 -54 15 -20 24 -39 22 -41 -14 -15 -87 143 -87 188 0 10 -4 18 -9 18
-5 0 -11 9 -14 21 -4 16 -3 18 9 8 11 -9 14 -8 15 2 2 50 61 189 79 189 6 0 8
5 5 10 -4 6 21 46 54 90 42 56 59 88 59 108 -1 16 4 37 11 48 10 16 11 15 7
-14 -2 -18 -1 -32 4 -30 5 2 60 51 122 109 135 127 187 172 253 221 60 43 146
88 157 82 4 -3 8 0 8 5 0 18 28 12 90 -18z m-310 -85 c0 -2 -8 -10 -17 -17
-16 -13 -17 -12 -4 4 13 16 21 21 21 13z m-542 -518 c-7 -13 -11 -27 -10 -31
1 -4 -5 -22 -14 -39 -9 -17 -14 -41 -11 -54 2 -14 0 -21 -6 -17 -5 3 -7 30 -5
59 3 39 11 61 28 79 29 31 34 32 18 3z m1352 -401 c0 -2 -14 -16 -32 -33 -31
-28 -30 -15 1 18 14 15 31 23 31 15z m-1080 -49 c0 -12 -6 -9 -26 13 -19 22
-19 22 4 8 12 -8 22 -17 22 -21z"/>
<path d="M1102 1583 c-19 -18 -38 -30 -43 -27 -22 13 -6 -16 19 -35 15 -12 20
-18 10 -15 -10 3 -18 -1 -21 -13 -4 -16 -5 -16 -6 2 -1 11 -12 25 -25 31 -26
12 -45 0 -169 -108 -46 -41 -55 -53 -46 -64 10 -12 9 -13 -5 -8 -11 4 -16 1
-16 -12 0 -11 -3 -36 -6 -56 -4 -25 -3 -38 5 -38 6 0 14 18 17 41 5 28 10 37
17 30 8 -8 5 -32 -7 -81 l-19 -71 23 -24 c25 -27 68 -33 89 -12 11 10 13 10 7
0 -5 -9 0 -13 14 -13 29 0 107 -39 114 -57 9 -23 -1 -28 -21 -12 -9 8 -14 9
-10 2 4 -6 3 -14 -3 -18 -19 -11 -10 -23 13 -17 21 5 21 4 5 -15 -25 -28 -22
-41 3 -15 21 23 39 21 39 -3 0 -8 4 -17 10 -20 6 -3 7 1 4 9 -3 9 -1 16 5 16
7 0 14 -7 18 -16 3 -8 11 -13 18 -10 8 3 16 -6 20 -22 6 -26 7 -26 20 -8 13
17 14 17 21 -9 l7 -28 12 23 c7 13 15 18 19 12 3 -6 2 -12 -3 -14 -17 -6 -21
-58 -5 -58 8 0 14 10 14 26 0 14 4 23 10 19 6 -4 8 -10 6 -14 -9 -13 12 -37
23 -26 12 12 3 55 -11 55 -5 0 -6 5 -3 11 5 6 12 4 21 -8 12 -16 13 -16 14 -2
0 19 -24 42 -33 32 -4 -3 -7 1 -7 10 0 10 -5 17 -11 17 -5 0 -7 5 -4 10 4 6
12 7 18 4 9 -5 9 -4 0 6 -9 10 -17 9 -37 -7 -14 -11 -22 -24 -18 -28 4 -4 -3
-2 -15 4 -13 6 -27 19 -32 29 -18 36 45 178 86 193 19 7 25 1 49 -47 15 -30
29 -52 31 -51 5 5 -38 107 -46 108 -51 8 -62 5 -82 -28 -11 -18 -22 -33 -24
-33 -1 0 7 24 19 54 13 34 25 51 30 45 21 -20 47 -9 62 26 18 44 18 56 -1 31
-8 -11 -15 -28 -15 -38 0 -11 -7 -18 -17 -17 -10 0 -13 3 -8 5 6 2 9 23 7 47
-2 31 -1 38 7 27 9 -13 11 -13 11 2 0 9 -5 20 -10 23 -6 4 -10 22 -8 40 2 27
5 32 15 23 11 -8 12 -7 7 7 -5 13 -4 16 4 11 8 -5 12 2 13 21 0 15 3 22 6 15
2 -6 10 -9 16 -5 7 4 8 0 3 -13 -23 -55 -24 -73 -8 -87 11 -10 24 -12 37 -7
19 8 19 9 -2 9 -26 1 -38 32 -23 61 6 11 14 20 17 20 3 0 3 -3 0 -7 -4 -3 -2
-11 3 -18 15 -18 68 -5 89 21 12 15 21 20 28 13 11 -11 57 3 68 20 10 17 -4
50 -25 61 -24 13 -45 5 -58 -23 -8 -17 -11 -18 -11 -5 -1 12 -6 16 -18 12 -11
-4 -5 5 12 21 22 19 24 25 10 19 -11 -4 -33 -8 -48 -9 -16 -2 -40 -14 -54 -27
l-25 -23 7 23 c6 22 5 23 -17 12 l-23 -13 21 24 c26 30 43 60 24 42 -10 -9
-17 -6 -34 13 -17 20 -32 25 -86 27 -62 3 -67 2 -98 -30z m268 -94 c-7 -11
-14 -18 -17 -15 -3 3 0 12 7 21 18 21 23 19 10 -6z m-220 -10 c0 -6 -4 -7 -10
-4 -5 3 -10 11 -10 16 0 6 5 7 10 4 6 -3 10 -11 10 -16z m62 -57 c-3 -10 -1
-13 6 -8 6 4 11 -1 11 -11 0 -10 1 -30 2 -45 1 -15 -6 -34 -14 -43 -9 -8 -14
-21 -11 -28 2 -7 -3 -21 -12 -32 -13 -17 -15 -17 -10 -2 3 9 1 17 -4 17 -6 0
-10 -6 -10 -12 -1 -35 -87 -98 -130 -97 -23 0 -23 1 -5 9 19 8 18 9 -4 9 -34
1 -18 13 20 16 38 3 53 23 33 42 -8 8 -14 19 -14 24 0 21 -28 6 -56 -30 -23
-31 -33 -37 -46 -30 -29 16 -34 9 -8 -12 22 -18 20 -18 -19 3 -24 12 -51 34
-60 48 -8 14 -19 28 -23 31 -5 3 -6 23 -2 45 3 21 6 45 6 52 2 26 105 28 198
3 19 -5 46 -12 60 -16 l25 -6 -25 16 -25 16 35 -7 c39 -7 65 -24 36 -24 -9 0
-15 -4 -11 -10 8 -13 34 -1 46 22 8 15 5 27 -11 55 -15 25 -16 32 -6 24 14
-11 16 -11 16 5 0 15 2 16 9 5 5 -8 7 -21 3 -29z m-163 -26 c10 -12 8 -13 -8
-9 -12 3 -21 9 -21 14 0 14 16 11 29 -5z m-205 -201 c3 -8 1 -15 -4 -15 -6 0
-10 7 -10 15 0 8 2 15 4 15 2 0 6 -7 10 -15z m306 -10 c-7 -9 -15 -13 -19 -10
-3 3 1 10 9 15 21 14 24 12 10 -5z m-260 -47 c0 -10 -29 -3 -43 11 -9 9 -9 14
3 21 13 8 39 -12 40 -32z m245 -18 c3 -5 1 -10 -4 -10 -6 0 -11 5 -11 10 0 6
2 10 4 10 3 0 8 -4 11 -10z m-33 -21 c21 0 43 -35 28 -44 -5 -3 -21 5 -35 17
-15 13 -36 26 -48 30 -15 5 -12 6 8 2 17 -3 38 -5 47 -5z"/>
<path d="M1471 1390 c-47 -11 -89 -24 -95 -30 -12 -12 -4 -13 27 -1 76 29 212
37 242 14 12 -9 16 -17 9 -20 -7 -2 -10 -18 -7 -39 5 -37 -4 -90 -14 -81 -3 4
-20 -4 -37 -17 -17 -13 -40 -26 -51 -30 -20 -6 -20 -6 -1 9 25 19 23 19 -43
-4 -38 -13 -48 -20 -35 -24 16 -4 15 -5 -4 -6 -45 -2 -131 60 -132 96 0 6 -4
14 -9 17 -5 3 -7 -10 -5 -29 1 -19 -1 -35 -7 -35 -5 0 -9 7 -9 17 0 9 -3 14
-6 10 -9 -9 26 -94 47 -113 11 -9 19 -12 19 -7 0 6 -6 13 -14 16 -7 3 -18 20
-25 37 -10 30 -9 31 6 19 15 -12 16 -12 10 4 -3 9 -2 17 2 17 5 0 12 -7 15
-15 8 -22 82 -53 116 -49 37 4 130 51 147 73 7 9 13 12 13 7 0 -5 7 -3 15 4
12 10 16 10 19 -1 9 -28 3 -50 -13 -47 -20 3 -41 -9 -41 -24 0 -7 5 -6 15 2 8
7 23 9 32 5 17 -6 17 -7 0 -16 -9 -6 -22 -7 -27 -4 -6 3 -10 0 -10 -7 0 -9 -3
-9 -10 2 -8 13 -11 13 -22 -2 -13 -16 -91 -31 -82 -16 3 4 12 8 20 8 8 0 14 5
14 11 0 6 -8 8 -17 5 -10 -3 -31 -8 -46 -12 -26 -6 -26 -7 -10 -20 16 -12 16
-15 3 -23 -10 -7 -16 -7 -18 -1 -2 6 -11 10 -20 10 -15 -1 -15 -2 -2 -13 13
-10 14 -18 5 -45 -6 -18 -15 -29 -19 -25 -5 5 -7 1 -4 -7 5 -17 27 -21 45 -7
7 5 17 6 22 2 6 -3 8 0 5 8 -2 7 -11 14 -19 14 -8 0 -12 -4 -9 -9 3 -4 0 -8
-5 -8 -12 0 -14 20 -5 45 11 27 91 56 147 54 43 -2 53 1 73 25 23 26 26 68 8
97 -9 15 -13 72 -6 83 3 6 9 0 13 -14 l7 -25 1 27 c1 15 -4 30 -9 33 -8 5 -7
11 1 21 9 11 5 17 -22 28 -58 24 -101 26 -188 6z"/>
<path d="M1425 1250 c-4 -11 -10 -18 -15 -15 -4 3 -6 -4 -3 -15 6 -23 34 -34
63 -25 20 6 29 35 11 35 -5 0 -11 9 -14 20 -7 26 -34 26 -42 0z"/>
<path d="M626 1070 c6 -57 28 -103 74 -155 28 -31 85 -125 76 -125 -3 0 -21
21 -41 46 -41 55 -46 51 -9 -6 15 -22 25 -43 22 -45 -9 -9 -56 60 -99 142 -46
87 -45 54 1 -45 16 -34 30 -66 30 -70 1 -4 15 -23 33 -41 l32 -35 -37 30 c-20
16 -35 34 -33 39 1 6 -6 11 -16 11 -23 0 -16 -10 66 -91 34 -33 71 -73 84 -90
12 -16 20 -22 17 -12 -10 30 10 10 25 -25 17 -42 90 -158 126 -200 41 -47 107
-115 96 -98 -17 25 -123 229 -123 237 0 14 52 -64 101 -153 28 -51 65 -105 82
-121 l30 -28 -25 35 c-14 19 -45 73 -68 120 -42 83 -203 297 -220 293 -10 -3
-60 58 -60 73 0 5 12 -9 26 -29 32 -48 44 -41 14 7 -20 34 -20 36 -3 37 13 1
12 3 -6 8 -13 3 -34 25 -48 51 -14 24 -40 62 -59 84 -41 48 -71 108 -84 167
-9 43 -9 42 -4 -11z"/>
<path d="M1370 1105 c-8 -10 -5 -13 15 -11 28 1 33 11 11 19 -8 3 -20 0 -26
-8z"/>
<path d="M885 1080 c-4 -6 -11 -8 -16 -5 -21 14 -7 -13 22 -41 27 -25 65 -82
57 -85 -30 -8 -39 -6 -33 9 5 13 2 13 -15 -3 -26 -23 -25 -41 1 -57 19 -12 66
-90 154 -253 21 -38 44 -74 52 -79 19 -10 268 -10 286 1 13 8 159 264 165 291
2 8 10 11 18 8 8 -3 13 -2 10 3 -3 4 3 16 14 26 21 19 26 40 11 49 -5 4 -7 -4
-3 -16 3 -15 2 -19 -7 -14 -7 5 -10 2 -9 -5 2 -7 -7 -18 -19 -24 -13 -5 -23
-16 -23 -23 0 -7 -17 -36 -39 -65 -21 -29 -42 -63 -46 -77 -12 -42 -56 -111
-66 -105 -5 4 -9 -1 -9 -9 0 -8 -4 -18 -10 -21 -6 -4 -10 7 -10 26 0 24 10 42
45 77 25 25 44 47 41 49 -6 6 -86 -76 -87 -90 0 -7 -4 -3 -8 8 -6 15 -1 26 21
46 18 17 25 30 19 34 -14 8 -14 65 -1 65 6 0 10 -9 10 -21 0 -11 5 -17 10 -14
6 3 10 19 10 36 0 20 5 29 16 29 12 0 14 -7 9 -30 -5 -23 -3 -30 9 -30 27 0
42 50 25 81 -13 25 -2 44 17 28 21 -17 17 5 -6 31 -11 12 -17 27 -13 33 3 6 1
7 -5 3 -9 -5 -9 -13 -2 -27 7 -12 7 -19 1 -19 -5 0 -11 -10 -13 -22 -2 -17 -9
-22 -24 -21 -14 2 -24 -4 -27 -17 -3 -13 -10 -18 -21 -14 -11 4 -16 0 -16 -13
0 -30 -13 -36 -25 -13 -11 20 -12 20 -26 4 -12 -15 -12 -17 0 -9 11 6 13 4 8
-9 -4 -10 -7 -20 -7 -22 0 -14 -20 -1 -20 14 -1 11 -6 7 -17 -13 l-16 -30 -11
25 c-14 35 -16 36 -26 20 -15 -24 -12 -37 11 -43 14 -4 18 -10 13 -18 -6 -10
-9 -10 -12 -1 -2 7 -7 10 -12 7 -4 -3 -15 11 -25 31 -15 33 -18 34 -30 17 -12
-17 -14 -16 -21 10 -5 21 -9 25 -15 15 -7 -10 -12 -9 -26 6 -17 18 -17 18 0
13 9 -4 17 -2 17 2 0 5 3 16 6 25 4 11 1 16 -10 16 -9 0 -16 -6 -16 -14 0 -8
-10 -18 -22 -22 -13 -4 -26 -11 -29 -16 -3 -5 -9 -3 -12 6 -4 10 -1 16 9 16
11 0 14 6 10 16 -3 9 -6 19 -6 22 0 4 -4 1 -9 -7 -11 -18 -31 -5 -31 20 0 11
-4 17 -10 14 -5 -3 -10 -1 -10 4 0 6 -7 11 -15 11 -13 0 -14 4 -5 20 8 15 7
26 -2 43 -12 21 -13 26 -16 55 -1 7 -8 10 -14 7 -7 -4 -6 -1 3 7 11 9 14 19 8
33 -8 19 -8 19 -15 -3 -7 -23 -7 -23 -21 -2 -15 22 -38 26 -48 10z m10 -20 c3
-5 1 -10 -4 -10 -6 0 -11 5 -11 10 0 6 2 10 4 10 3 0 8 -4 11 -10z m122 -202
c-3 -8 -6 -5 -6 6 -1 11 2 17 5 13 3 -3 4 -12 1 -19z m90 -80 c-3 -8 -6 -5 -6
6 -1 11 2 17 5 13 3 -3 4 -12 1 -19z m53 -24 c0 -8 -4 -12 -10 -9 -5 3 -10 10
-10 16 0 5 5 9 10 9 6 0 10 -7 10 -16z m200 7 c0 -6 -4 -13 -10 -16 -5 -3 -10
1 -10 9 0 9 5 16 10 16 6 0 10 -4 10 -9z m-44 -26 c-1 -8 -8 -21 -14 -27 -10
-10 -12 -7 -8 12 2 14 5 26 5 28 3 10 19 -1 17 -13z m-234 -42 c40 -41 62 -98
35 -87 -8 3 -18 13 -21 22 -13 33 -31 62 -38 62 -5 0 -8 6 -8 14 0 8 -6 17
-12 19 -7 3 -8 6 -3 6 6 1 27 -16 47 -36z m246 -71 c13 4 23 0 26 -9 14 -36 7
-38 -104 -38 -70 0 -110 3 -110 10 0 6 16 9 38 7 26 -3 42 1 51 12 8 9 24 16
37 16 13 0 24 6 24 13 0 8 3 8 9 -2 5 -8 18 -12 29 -9z"/>
<path d="M1866 1073 c-6 -14 -5 -15 5 -6 7 7 10 15 7 18 -3 3 -9 -2 -12 -12z"/>
<path d="M1357 1073 c-4 -3 -1 -13 7 -22 17 -21 25 -56 16 -71 -13 -20 -30 -1
-30 33 0 18 -4 37 -8 44 -4 7 -7 -13 -5 -44 1 -47 -1 -56 -18 -60 -23 -6 -25
-19 -4 -27 8 -3 15 -10 15 -16 0 -6 -4 -9 -9 -6 -11 7 -23 -22 -15 -35 9 -15
37 -10 31 5 -7 17 13 86 25 86 4 0 8 -6 9 -12 0 -7 4 -3 9 9 6 15 15 21 25 17
8 -3 15 -2 15 4 0 5 -7 12 -15 16 -21 8 -18 36 7 63 12 13 17 23 12 23 -13 0
-36 -16 -35 -24 2 -16 0 -18 -14 -6 -8 7 -12 16 -9 21 6 11 0 12 -9 2z"/>
<path d="M1534 1065 c6 -17 -13 -65 -26 -65 -4 0 -8 -4 -8 -10 0 -5 6 -7 13
-4 8 3 13 -5 15 -21 1 -14 8 -38 17 -53 14 -27 14 -27 9 14 -5 37 -2 45 43 95
50 56 32 50 -24 -9 l-32 -33 5 50 c3 34 1 51 -7 51 -6 0 -9 -7 -5 -15z"/>
<path d="M1852 1025 c-6 -14 -8 -25 -3 -25 8 0 23 41 17 47 -1 2 -8 -8 -14
-22z"/>
<path d="M1950 1001 c0 -17 5 -31 10 -31 6 0 10 11 10 24 0 14 -4 28 -10 31
-6 4 -10 -7 -10 -24z"/>
<path d="M985 990 c3 -5 11 -10 16 -10 6 0 7 5 4 10 -3 6 -11 10 -16 10 -6 0
-7 -4 -4 -10z"/>
<path d="M1803 939 c-21 -29 -65 -96 -98 -149 -33 -54 -82 -126 -110 -160
-103 -129 -124 -159 -161 -231 -20 -41 -50 -93 -66 -116 -16 -24 -23 -40 -16
-37 15 6 63 76 109 159 40 73 104 160 94 127 -3 -12 -26 -55 -51 -94 -24 -40
-44 -76 -44 -81 0 -5 -10 -23 -22 -40 -16 -23 -17 -28 -5 -18 23 18 86 98 70
88 -21 -13 -15 2 30 74 38 62 68 92 53 54 -12 -33 5 -12 35 40 17 30 34 53 39
50 4 -3 15 6 23 19 9 13 41 51 72 85 31 33 54 65 51 70 -4 5 -2 12 4 16 5 3
10 -2 10 -12 0 -15 2 -15 15 4 9 12 14 26 13 30 -1 4 4 19 11 33 8 14 -6 3
-30 -24 -24 -28 -45 -53 -45 -58 -1 -4 -2 -12 -3 -18 0 -5 -6 -10 -12 -10 -5
0 -7 5 -4 10 7 12 -18 14 -29 3 -4 -5 -12 -8 -16 -8 -10 0 -100 -118 -95 -123
2 -2 10 0 17 4 7 5 17 9 21 9 4 0 13 11 20 24 7 13 23 31 37 39 l25 16 -26
-30 c-14 -16 -33 -40 -42 -54 -10 -13 -17 -19 -17 -12 0 8 -12 5 -35 -8 -35
-20 -35 -19 33 83 37 56 75 118 84 137 9 19 37 61 62 94 25 32 46 60 46 62 0
11 -12 -1 -47 -47z m37 -129 c0 -5 -5 -10 -11 -10 -5 0 -7 5 -4 10 3 6 8 10
11 10 2 0 4 -4 4 -10z m-226 -250 c-10 -16 -20 -27 -22 -25 -5 5 26 55 34 55
3 0 -3 -13 -12 -30z m-24 6 c0 -3 -4 -8 -10 -11 -5 -3 -10 -1 -10 4 0 6 5 11
10 11 6 0 10 -2 10 -4z"/>
<path d="M1051 966 c-14 -17 -7 -36 15 -36 15 0 18 18 5 38 -6 10 -10 10 -20
-2z"/>
<path d="M1430 967 c0 -9 5 -17 11 -17 5 0 7 -6 3 -12 -5 -10 -4 -10 7 0 11
10 10 15 -4 29 -16 16 -17 16 -17 0z"/>
<path d="M1387 941 c-3 -13 -1 -19 6 -14 6 4 8 0 4 -10 -4 -11 -2 -14 9 -10
17 6 18 14 1 38 -13 17 -14 17 -20 -4z"/>
<path d="M1010 935 c0 -8 5 -15 10 -15 6 0 10 7 10 15 0 8 -4 15 -10 15 -5 0
-10 -7 -10 -15z"/>
<path d="M1943 928 c0 -7 -4 -21 -8 -31 -6 -13 -3 -16 9 -11 9 3 16 17 16 30
0 24 -16 35 -17 12z"/>
<path d="M1126 914 c-10 -25 -7 -34 9 -34 9 0 15 9 15 25 0 28 -15 34 -24 9z"/>
<path d="M1352 905 c1 -14 8 -25 15 -25 14 0 16 10 7 34 -10 25 -24 19 -22 -9z"/>
<path d="M1042 894 c-1 -14 2 -23 8 -19 12 7 14 45 2 45 -4 0 -9 -11 -10 -26z"/>
<path d="M1813 851 c-34 -53 -37 -59 -12 -31 17 19 37 48 45 63 28 52 10 35
-33 -32z"/>
<path d="M1170 891 c-13 -25 -5 -42 15 -35 7 3 12 15 10 26 -6 30 -12 32 -25
9z"/>
<path d="M1446 894 c-10 -25 1 -29 14 -5 6 12 7 21 1 21 -5 0 -12 -7 -15 -16z"/>
<path d="M1081 878 c-1 -31 14 -45 23 -22 9 23 7 36 -3 30 -5 -4 -12 0 -14 6
-3 7 -6 1 -6 -14z"/>
<path d="M1407 884 c-4 -4 -7 -17 -7 -28 1 -19 1 -20 11 -3 11 19 8 43 -4 31z"/>
<path d="M1778 853 c-18 -21 -61 -103 -53 -103 2 0 14 19 26 43 12 23 28 50
37 60 8 9 13 17 10 17 -3 0 -12 -8 -20 -17z"/>
<path d="M1913 838 l-12 -33 19 24 c21 24 26 41 12 41 -4 0 -13 -15 -19 -32z"/>
<path d="M640 851 c0 -5 7 -15 17 -22 15 -13 15 -12 4 9 -12 23 -21 28 -21 13z"/>
<path d="M1351 848 c1 -18 17 -55 18 -43 1 6 4 20 7 33 5 16 2 22 -10 22 -9 0
-16 -6 -15 -12z"/>
<path d="M1278 840 c-9 -6 -15 -18 -13 -28 2 -9 4 -26 4 -36 1 -30 18 -6 25
37 4 20 6 37 4 37 -2 0 -10 -5 -20 -10z"/>
<path d="M1168 810 c5 -33 18 -30 24 5 2 11 -3 21 -13 23 -12 2 -15 -4 -11
-28z"/>
<path d="M1207 828 c-2 -7 0 -24 6 -38 l10 -25 7 25 c7 27 3 50 -10 50 -4 0
-10 -6 -13 -12z"/>
<path d="M883 753 c-25 -10 -14 -51 20 -77 48 -37 57 -32 14 7 -28 24 -35 36
-28 46 8 12 12 10 22 -12 11 -24 64 -67 83 -67 4 0 -13 20 -38 44 -25 24 -46
49 -46 55 0 12 -7 13 -27 4z"/>
<path d="M1585 740 c-3 -11 -16 -28 -28 -37 -12 -10 -29 -27 -37 -38 -14 -18
-13 -18 20 2 19 12 42 34 50 50 12 23 15 25 18 10 2 -11 -7 -31 -20 -45 l-23
-26 25 16 c33 20 50 66 30 78 -22 14 -28 12 -35 -10z"/>
<path d="M950 639 c0 -6 -4 -7 -10 -4 -5 3 -10 2 -10 -4 0 -16 62 -62 77 -57
8 4 24 6 36 7 l22 0 -23 9 c-12 5 -28 7 -36 4 -8 -3 -23 -1 -33 5 -16 9 -17
10 -1 11 11 0 15 5 12 14 -7 18 -34 29 -34 15z"/>
<path d="M1524 628 c-19 -21 -19 -21 0 -14 16 5 17 4 6 -9 -7 -9 -20 -15 -29
-14 -9 1 -27 1 -40 0 -20 -1 -22 -3 -11 -16 9 -11 15 -12 20 -5 4 6 13 8 22 5
18 -7 82 50 73 65 -9 15 -20 12 -41 -12z"/>
<path d="M1646 573 c-6 -14 -5 -15 5 -6 7 7 10 15 7 18 -3 3 -9 -2 -12 -12z"/>
<path d="M1177 519 c7 -7 15 -10 18 -7 3 3 -2 9 -12 12 -14 6 -15 5 -6 -5z"/>
<path d="M1245 513 c-11 -2 -26 -6 -33 -8 -7 -3 -15 -4 -18 -4 -17 2 -22 -28
-8 -48 9 -14 10 -23 4 -23 -6 0 -8 -4 -5 -10 3 -5 0 -10 -7 -11 -7 0 1 -7 17
-14 54 -24 145 1 145 38 0 6 -6 3 -13 -7 -10 -14 -17 -15 -40 -7 -18 7 -26 7
-22 1 3 -6 -4 -10 -16 -10 -21 0 -19 3 16 35 21 20 35 38 32 42 -4 3 -1 13 6
21 10 13 9 14 -10 4 -27 -15 -36 -15 -28 -2 3 6 5 9 3 9 -2 -1 -12 -3 -23 -6z"/>
<path d="M1460 495 c-7 -8 -27 -17 -46 -21 -19 -3 -35 -11 -35 -18 -1 -6 -2
-17 -3 -24 0 -7 -8 -17 -16 -22 -24 -15 -6 -12 28 6 32 16 45 31 17 20 -30
-11 -14 14 18 27 28 12 69 47 54 47 -2 0 -10 -7 -17 -15z"/>
<path d="M1036 489 c5 -9 78 -49 89 -49 3 0 5 7 5 16 0 8 5 12 10 9 6 -3 10
-2 10 4 0 6 -12 8 -29 5 -18 -4 -42 0 -60 9 -17 9 -29 11 -25 6z"/>
<path d="M1566 473 c-6 -14 -5 -15 5 -6 7 7 10 15 7 18 -3 3 -9 -2 -12 -12z"/>
<path d="M1350 470 c0 -5 5 -10 10 -10 6 0 10 5 10 10 0 6 -4 10 -10 10 -5 0
-10 -4 -10 -10z"/>
<path d="M1104 420 c49 -25 58 -26 26 -3 -14 10 -34 19 -45 20 -11 1 -2 -6 19
-17z"/>
<path d="M1179 363 c-11 -61 6 -104 40 -102 10 0 12 2 4 6 -7 2 -13 12 -13 22
0 9 -6 23 -12 30 -11 10 -10 11 4 6 15 -6 16 -4 5 19 -12 25 -26 34 -28 19z"/>
<path d="M1297 350 c-3 -11 -1 -18 4 -14 5 3 9 1 9 -5 0 -5 -4 -13 -10 -16 -5
-3 -10 -11 -10 -16 0 -6 5 -7 10 -4 6 3 10 2 10 -4 0 -5 -12 -14 -27 -19 -23
-9 -25 -11 -7 -11 11 -1 29 8 39 19 10 11 14 20 9 20 -6 0 -8 16 -6 35 4 37
-12 49 -21 15z"/>
<path d="M1111 357 c2 -1 11 -8 20 -15 13 -9 16 -9 16 3 0 8 -9 15 -20 15 -11
0 -18 -1 -16 -3z"/>
<path d="M1355 350 c3 -5 12 -7 20 -3 21 7 19 13 -6 13 -11 0 -18 -4 -14 -10z"/>
<path d="M1295 2398 c37 -13 56 -28 50 -38 -3 -4 9 -13 25 -20 25 -10 30 -18
30 -48 0 -23 15 -62 42 -111 22 -42 34 -70 25 -63 -9 8 -21 11 -26 7 -16 -9
10 -63 69 -148 75 -107 89 -122 102 -109 8 8 -3 38 -37 109 -26 54 -52 109
-59 123 -6 14 -25 50 -43 80 -17 30 -34 66 -38 78 -6 22 -5 23 17 17 54 -17
166 -121 225 -210 42 -64 38 -84 -8 -34 l-31 34 20 -35 c11 -19 47 -89 81
-154 66 -129 79 -140 30 -26 -35 84 -34 109 3 53 27 -42 66 -128 118 -265 19
-49 37 -88 41 -88 18 0 -84 270 -118 311 -7 8 -13 19 -13 22 0 17 -135 229
-171 271 -67 76 -310 256 -343 255 -16 0 -14 -3 9 -11z"/>
<path d="M830 2341 c8 -5 29 -11 45 -15 l30 -6 -25 15 c-14 8 -34 14 -45 14
-16 0 -17 -1 -5 -8z"/>
<path d="M1623 2340 c-13 -5 -23 -11 -23 -14 0 -5 70 11 77 18 9 9 -29 6 -54
-4z"/>
<path d="M1470 2329 c0 -5 5 -7 10 -4 6 3 10 8 10 11 0 2 -4 4 -10 4 -5 0 -10
-5 -10 -11z"/>
<path d="M980 2315 c7 -8 16 -12 21 -9 13 8 1 24 -18 24 -13 0 -13 -3 -3 -15z"/>
<path d="M1495 2321 c-10 -17 12 -21 25 -6 10 12 10 15 -3 15 -9 0 -18 -4 -22
-9z"/>
<path d="M930 2311 c0 -15 28 -33 40 -26 8 5 8 11 -1 21 -13 15 -39 19 -39 5z"/>
<path d="M1531 2306 c-9 -10 -9 -16 -1 -21 12 -7 40 11 40 26 0 14 -26 10 -39
-5z"/>
<path d="M861 2287 c-40 -10 -95 -53 -122 -94 -33 -49 -21 -49 27 1 26 26 52
45 59 42 7 -2 15 3 18 13 3 12 18 21 41 25 20 4 36 10 36 15 0 10 -17 10 -59
-2z"/>
<path d="M1580 2292 c0 -5 18 -14 40 -21 22 -6 40 -16 40 -21 0 -6 7 -10 16
-10 9 0 36 -21 60 -47 24 -27 44 -44 44 -40 0 29 -61 97 -109 121 -36 19 -91
30 -91 18z"/>
<path d="M775 2150 c-2 -3 -18 -7 -37 -8 -110 -7 -192 -42 -222 -93 -28 -48
-17 -53 23 -10 21 22 45 41 52 41 7 0 31 9 53 20 23 10 59 22 81 25 86 12 105
16 105 24 0 9 -50 10 -55 1z"/>
<path d="M1670 2149 c0 -10 46 -23 75 -21 27 2 123 -27 130 -39 4 -5 16 -9 27
-9 12 0 38 -18 60 -42 21 -23 38 -38 38 -34 0 25 -37 78 -66 95 -33 20 -191
54 -206 44 -5 -2 -8 -1 -8 4 0 4 -11 9 -25 9 -14 1 -25 -2 -25 -7z"/>
<path d="M675 2083 c-10 -15 -27 -35 -38 -43 -31 -24 -77 -73 -72 -78 6 -7 85
49 85 59 0 5 14 22 31 40 19 19 27 35 21 41 -5 5 -16 -2 -27 -19z"/>
<path d="M1790 2095 c0 -17 120 -135 138 -135 18 0 -21 50 -58 75 -16 11 -35
30 -41 42 -11 20 -39 33 -39 18z"/>
<path d="M466 2043 c6 -52 16 -56 13 -5 -2 23 -6 42 -10 42 -5 0 -6 -17 -3
-37z"/>
<path d="M2020 2038 c0 -37 7 -34 14 5 2 15 0 27 -5 27 -5 0 -9 -14 -9 -32z"/>
<path d="M770 2020 c0 -5 -24 -51 -53 -102 -29 -51 -63 -115 -75 -141 -29 -63
-74 -199 -67 -205 8 -8 9 -6 55 118 44 120 74 186 87 192 8 3 73 130 73 142 0
3 -4 6 -10 6 -5 0 -10 -4 -10 -10z"/>
<path d="M476 1964 c31 -25 64 -37 64 -23 0 5 -4 9 -8 9 -5 0 -17 7 -28 15
-18 14 -17 14 11 4 24 -8 27 -8 18 2 -7 7 -29 13 -49 14 l-36 1 28 -22z"/>
<path d="M1983 1983 c-7 -3 -13 -9 -13 -15 0 -6 6 -5 15 2 9 7 18 10 22 7 3
-4 -6 -12 -20 -18 -15 -7 -24 -16 -21 -20 6 -10 39 5 66 31 17 16 17 17 -9 17
-16 0 -34 -2 -40 -4z"/>
<path d="M445 1936 c27 -18 65 -29 65 -18 0 11 -45 32 -68 32 -14 0 -13 -2 3
-14z"/>
<path d="M2009 1930 c-30 -25 -14 -25 31 0 28 16 31 19 14 20 -12 0 -32 -9
-45 -20z"/>
<path d="M370 1924 c0 -5 22 -16 48 -25 26 -9 55 -19 66 -24 30 -13 14 18 -18
33 -34 17 -96 27 -96 16z"/>
<path d="M545 1920 c-14 -6 0 -9 44 -9 35 -1 62 1 60 4 -10 9 -85 13 -104 5z"/>
<path d="M1880 1920 c-19 -6 -9 -8 35 -8 42 -1 54 2 40 8 -24 10 -42 10 -75 0z"/>
<path d="M2041 1912 c-37 -18 -59 -52 -25 -37 11 4 40 16 66 25 47 17 54 30
14 30 -12 -1 -36 -9 -55 -18z"/>
<path d="M319 1866 c-72 -48 -98 -95 -114 -204 -8 -56 10 -48 19 9 4 22 15 58
26 80 20 38 84 105 122 125 15 8 17 12 7 16 -8 3 -35 -9 -60 -26z"/>
<path d="M2117 1893 c-4 -3 10 -18 31 -33 20 -15 48 -38 61 -50 30 -29 71
-117 71 -152 0 -15 5 -30 10 -33 7 -4 8 8 4 37 -12 84 -25 120 -59 156 -36 39
-108 85 -118 75z"/>
<path d="M446 1807 c-16 -37 -33 -61 -46 -64 -11 -3 -20 -9 -20 -14 0 -18 -40
-48 -55 -43 -9 4 -15 0 -15 -10 0 -8 -29 -37 -65 -63 -40 -30 -73 -65 -89 -93
-28 -51 -37 -133 -17 -153 10 -10 12 -5 8 24 -5 40 15 109 41 141 9 11 51 44
93 74 43 30 93 71 113 92 41 41 91 134 83 154 -2 7 -16 -13 -31 -45z"/>
<path d="M1906 1845 c-7 -19 3 -45 17 -45 6 0 7 3 4 7 -4 3 -2 12 4 20 9 10 8
13 0 13 -7 0 -9 5 -6 10 3 6 2 10 -3 10 -6 0 -12 -7 -16 -15z"/>
<path d="M2020 1854 c0 -21 25 -84 33 -84 6 0 2 -10 -9 -22 -16 -19 -16 -20
-1 -9 15 12 20 10 39 -15 30 -38 79 -80 89 -77 5 2 9 -1 9 -6 0 -5 21 -23 48
-40 88 -56 122 -109 125 -194 1 -30 5 -43 11 -37 15 15 7 101 -13 140 -10 19
-49 61 -87 93 -38 32 -71 65 -72 73 -2 9 -10 13 -18 10 -15 -6 -54 26 -54 45
0 5 -4 8 -9 5 -13 -8 -37 23 -60 77 -18 42 -31 59 -31 41z"/>
<path d="M1652 1798 c66 -79 105 -136 222 -326 59 -95 115 -194 123 -220 9
-26 23 -57 31 -69 8 -13 10 -23 4 -23 -17 0 -103 128 -154 228 -69 137 -163
291 -209 342 -50 56 -44 32 16 -60 25 -39 72 -120 105 -180 61 -114 120 -205
175 -275 43 -55 54 -75 27 -51 -36 31 -25 3 13 -34 19 -19 35 -31 35 -28 0 4
-7 14 -16 23 -9 9 -14 19 -10 22 8 9 44 -39 39 -53 -2 -6 4 -17 14 -24 15 -12
16 -12 6 0 -15 17 -17 34 -3 25 6 -3 10 -2 10 4 0 5 -4 12 -9 15 -10 7 -37 97
-32 111 1 5 -1 7 -4 3 -4 -4 -41 59 -81 140 -40 82 -84 160 -99 176 -14 15
-25 32 -25 37 0 16 -110 171 -140 199 -3 3 -16 20 -29 38 -12 17 -29 32 -37
32 -10 0 0 -18 28 -52z"/>
<path d="M501 1824 c0 -10 5 -28 10 -39 7 -16 8 -13 5 13 -5 37 -16 57 -15 26z"/>
<path d="M1985 1810 c-4 -17 -5 -34 -2 -36 3 -3 8 9 12 26 4 17 5 34 2 36 -3
3 -8 -9 -12 -26z"/>
<path d="M285 1711 c-6 -11 9 -23 19 -14 9 9 7 23 -3 23 -6 0 -12 -4 -16 -9z"/>
<path d="M2190 1710 c0 -5 7 -10 16 -10 8 0 12 5 9 10 -3 6 -10 10 -16 10 -5
0 -9 -4 -9 -10z"/>
<path d="M411 1627 c-7 -9 -19 -13 -27 -10 -8 3 -14 -1 -14 -11 0 -21 48 -22
56 -1 10 24 0 39 -15 22z"/>
<path d="M2071 1620 c3 -19 10 -25 28 -25 13 0 26 6 29 14 3 8 -1 12 -9 9 -8
-3 -22 2 -33 11 -17 15 -18 14 -15 -9z"/>
<path d="M2039 1610 c0 -3 -3 -16 -5 -30 -6 -34 3 -57 18 -42 8 8 16 7 30 -1
15 -10 20 -9 28 3 13 21 -15 49 -32 32 -7 -7 -17 -12 -22 -12 -6 0 -4 5 4 10
13 8 13 11 -2 27 -10 9 -18 15 -19 13z"/>
<path d="M434 1589 c-3 -6 0 -15 7 -20 8 -5 9 -9 4 -9 -6 0 -16 5 -23 12 -8 8
-15 8 -26 -1 -25 -21 -8 -41 32 -37 33 5 62 27 42 34 -5 2 -6 10 -3 18 6 17
-22 20 -33 3z"/>
<path d="M325 1561 c-3 -5 0 -13 6 -16 5 -4 8 -13 5 -21 -3 -8 -1 -14 4 -14 5
0 10 -6 13 -12 2 -7 3 -5 2 5 -2 9 1 17 6 17 12 0 7 32 -6 42 -14 10 -23 10
-30 -1z"/>
<path d="M2145 1562 c-15 -10 -18 -42 -4 -42 8 0 8 -4 -1 -15 -16 -19 -3 -20
15 -1 8 7 11 16 8 20 -3 3 -1 12 5 19 17 20 -1 35 -23 19z"/>
<path d="M567 1553 c-9 -14 -38 -135 -34 -139 2 -2 13 28 25 68 19 66 22 93 9
71z"/>
<path d="M2254 1535 c-3 -14 -10 -25 -14 -25 -5 0 -4 -12 1 -27 5 -16 11 -44
14 -65 3 -20 12 -39 20 -42 12 -4 12 0 4 22 -6 15 -11 57 -11 95 -1 72 -4 82
-14 42z"/>
<path d="M230 1520 c5 -17 7 -38 6 -48 -16 -83 -17 -104 -7 -98 5 4 13 23 16
44 4 20 10 49 15 65 5 15 5 27 1 27 -5 0 -11 9 -14 20 -3 11 -10 20 -15 20 -7
0 -8 -11 -2 -30z"/>
<path d="M1931 1525 c1 -11 9 -42 20 -70 15 -40 18 -43 13 -15 -9 47 -33 110
-33 85z"/>
<path d="M398 1513 c-17 -9 -25 -19 -21 -28 6 -17 29 -20 38 -5 4 6 10 8 15 5
15 -9 23 16 9 29 -11 10 -19 10 -41 -1z"/>
<path d="M465 1520 c-3 -5 -1 -10 4 -10 6 0 11 5 11 10 0 6 -2 10 -4 10 -3 0
-8 -4 -11 -10z"/>
<path d="M2056 1514 c-4 -9 -5 -17 -4 -18 2 -1 13 -7 25 -13 32 -18 43 -16 43
7 0 13 -7 20 -18 20 -10 0 -23 5 -29 11 -7 7 -12 5 -17 -7z"/>
<path d="M251 1370 c-35 -17 -70 -30 -77 -30 -7 0 -15 -4 -19 -9 -3 -6 10 -5
31 0 52 15 121 46 128 58 9 14 11 15 -63 -19z"/>
<path d="M2191 1386 c17 -18 148 -70 156 -62 3 2 -6 7 -19 11 -20 7 -115 48
-143 63 -5 2 -3 -3 6 -12z"/>
<path d="M108 1338 c9 -9 15 -9 24 0 9 9 7 12 -12 12 -19 0 -21 -3 -12 -12z"/>
<path d="M2368 1338 c9 -9 15 -9 24 0 9 9 7 12 -12 12 -19 0 -21 -3 -12 -12z"/>
<path d="M200 1320 c-14 -4 -39 -8 -57 -9 -17 -1 -35 -6 -38 -11 -11 -18 85
-8 108 11 24 20 23 21 -13 9z"/>
<path d="M2281 1316 c9 -9 38 -19 70 -23 37 -4 51 -2 44 5 -5 5 -28 12 -50 14
-22 3 -49 8 -60 13 -18 7 -19 6 -4 -9z"/>
<path d="M250 1289 c0 -5 5 -7 10 -4 6 3 10 8 10 11 0 2 -4 4 -10 4 -5 0 -10
-5 -10 -11z"/>
<path d="M2235 1290 c3 -5 8 -10 11 -10 2 0 4 5 4 10 0 6 -5 10 -11 10 -5 0
-7 -4 -4 -10z"/>
<path d="M154 1280 c-52 -8 -87 -22 -116 -48 -32 -27 -19 -32 18 -7 19 13 59
29 89 35 30 6 57 16 60 21 4 5 5 8 3 8 -2 -1 -26 -5 -54 -9z"/>
<path d="M2295 1279 c3 -4 30 -13 60 -19 30 -6 70 -22 89 -35 20 -14 36 -21
36 -16 0 11 -30 36 -65 53 -33 17 -128 30 -120 17z"/>
<path d="M220 1261 c0 -6 2 -11 4 -11 2 0 21 -7 42 -16 39 -16 39 -16 18 4
-25 24 -64 38 -64 23z"/>
<path d="M2232 1253 c-18 -8 -31 -18 -28 -20 8 -8 70 13 74 25 5 16 -6 15 -46
-5z"/>
<path d="M204 1216 c11 -31 12 -47 7 -108 0 -10 -8 -18 -16 -18 -17 0 -19 -9
-6 -29 6 -9 2 -30 -11 -60 -40 -92 -46 -123 -33 -175 16 -60 39 -91 93 -123
58 -34 53 -11 -7 32 -86 62 -97 136 -38 261 45 98 56 168 32 218 -22 46 -36
47 -21 2z"/>
<path d="M2275 1214 c-24 -51 -13 -131 32 -219 60 -119 47 -198 -45 -264 -52
-38 -55 -58 -4 -30 53 30 61 38 83 80 26 53 23 112 -10 194 -21 51 -26 76 -20
93 6 17 5 22 -6 22 -8 0 -16 10 -17 23 0 12 -2 29 -3 37 -1 8 4 34 11 58 15
51 3 55 -21 6z"/>
<path d="M116 1208 c-19 -45 -15 -144 8 -190 26 -54 39 -37 14 19 -24 54 -25
113 -3 166 9 21 11 37 5 37 -5 0 -16 -15 -24 -32z"/>
<path d="M2367 1198 c20 -58 18 -104 -6 -160 -23 -55 -11 -75 13 -23 27 56 31
128 12 180 -22 57 -39 59 -19 3z"/>
<path d="M160 1150 c0 -5 5 -10 10 -10 6 0 10 5 10 10 0 6 -4 10 -10 10 -5 0
-10 -4 -10 -10z"/>
<path d="M325 1143 c1 -10 -2 -24 -8 -30 -6 -9 -6 -13 2 -13 6 0 11 -10 12
-22 1 -20 2 -19 9 5 5 17 5 39 0 53 -11 28 -19 32 -15 7z"/>
<path d="M2320 1150 c0 -5 5 -10 10 -10 6 0 10 5 10 10 0 6 -4 10 -10 10 -5 0
-10 -4 -10 -10z"/>
<path d="M2157 1009 c-3 -11 -3 -27 0 -35 4 -11 7 -11 19 1 12 11 12 19 4 35
-13 25 -16 25 -23 -1z"/>
<path d="M180 936 c0 -4 12 -19 26 -34 38 -41 84 -109 84 -126 0 -8 5 -18 10
-21 20 -12 9 43 -15 79 -14 20 -25 44 -25 52 0 9 -5 12 -11 8 -6 -3 -14 -3
-18 2 -11 16 -51 47 -51 40z"/>
<path d="M2286 915 c-11 -14 -25 -24 -33 -21 -7 3 -13 -2 -13 -11 0 -9 -9 -26
-20 -38 -12 -12 -23 -40 -26 -61 l-6 -39 32 55 c17 30 41 66 53 80 37 41 50
60 41 60 -5 0 -18 -11 -28 -25z"/>
<path d="M2136 830 c6 -75 42 -177 70 -201 22 -18 17 5 -15 74 -17 34 -37 94
-45 132 l-16 70 6 -75z"/>
<path d="M351 829 c-7 -34 -26 -90 -42 -124 -16 -34 -29 -68 -29 -75 0 -15 33
26 44 54 3 10 9 16 12 13 4 -3 -6 -27 -21 -52 -26 -45 -28 -64 -6 -50 14 8 41
59 52 98 7 23 5 28 -6 23 -17 -6 -19 -1 -6 22 9 17 25 152 19 152 -2 0 -10
-28 -17 -61z"/>
<path d="M210 822 c0 -14 11 -21 26 -15 8 3 11 9 8 14 -7 11 -34 12 -34 1z"/>
<path d="M2256 821 c-3 -5 1 -11 9 -15 15 -6 29 7 18 18 -9 9 -21 8 -27 -3z"/>
<path d="M2135 698 c19 -61 57 -119 70 -106 6 6 -58 128 -68 128 -5 0 -5 -10
-2 -22z"/>
<path d="M371 683 c0 -7 -14 -35 -31 -61 -31 -50 -37 -72 -21 -72 15 0 63 107
58 127 -3 10 -5 12 -6 6z"/>
<path d="M195 669 c-37 -6 -36 -6 18 -8 31 0 57 1 57 3 0 8 -37 11 -75 5z"/>
<path d="M2124 657 c9 -37 35 -95 45 -101 18 -11 20 10 4 40 -9 16 -22 41 -30
57 -18 33 -27 35 -19 4z"/>
<path d="M2244 668 c-3 -4 19 -8 48 -7 57 1 55 5 -5 11 -21 2 -40 0 -43 -4z"/>
<path d="M391 645 c0 -11 -17 -42 -36 -70 -23 -31 -31 -51 -24 -54 25 -8 76
89 66 126 -4 15 -5 15 -6 -2z"/>
<path d="M2100 638 c0 -31 32 -98 52 -109 29 -15 31 -6 7 25 -12 15 -30 44
-40 64 -10 21 -18 29 -19 20z"/>
<path d="M393 565 c-27 -66 -31 -98 -9 -75 12 14 46 102 46 122 0 24 -18 2
-37 -47z"/>
<path d="M2070 614 c0 -3 7 -30 15 -59 16 -54 45 -94 45 -61 0 22 -43 126 -52
126 -5 0 -8 -3 -8 -6z"/>
<path d="M422 522 c-23 -75 -33 -150 -21 -157 7 -5 23 55 35 134 3 19 10 45
14 57 5 13 5 26 1 29 -5 3 -18 -25 -29 -63z"/>
<path d="M2048 585 c-3 -3 0 -30 7 -58 7 -29 18 -79 25 -112 11 -50 14 -56 20
-35 10 37 -37 220 -52 205z"/>
<path d="M480 550 c-26 -16 -4 -21 31 -6 31 14 32 15 9 15 -14 1 -32 -3 -40
-9z"/>
<path d="M1993 544 c16 -9 32 -13 35 -9 9 9 -19 25 -43 24 -16 0 -15 -2 8 -15z"/>
<path d="M453 494 c0 -8 15 -16 36 -20 69 -12 108 -48 157 -148 37 -74 58 -97
117 -128 41 -20 118 -22 124 -2 2 7 -6 10 -22 7 -17 -4 -25 -1 -25 8 0 11 -2
11 -9 0 -23 -36 -143 39 -158 98 -9 39 -63 154 -70 148 -3 -3 -22 4 -42 17
-45 29 -108 40 -108 20z"/>
<path d="M1958 482 c-29 -14 -56 -26 -60 -26 -5 -1 -7 -3 -6 -6 2 -3 -7 -18
-18 -35 -12 -16 -29 -53 -38 -81 -20 -62 -65 -110 -118 -126 -33 -10 -41 -9
-49 3 -7 11 -9 11 -9 0 0 -9 -9 -12 -29 -9 -21 3 -28 1 -24 -9 7 -17 81 -17
124 1 34 14 109 82 109 98 0 4 10 29 21 54 29 60 79 106 137 124 26 8 47 19
47 24 0 18 -35 13 -87 -12z"/>
<path d="M437 428 c-8 -23 20 -63 60 -85 45 -26 130 -43 119 -25 -4 7 -16 12
-27 12 -35 0 -97 39 -123 76 -15 22 -26 31 -29 22z"/>
<path d="M2033 405 c-22 -34 -82 -72 -122 -78 -11 -2 -24 -7 -28 -11 -16 -17
80 5 118 27 41 24 63 54 57 80 -2 12 -9 7 -25 -18z"/>
<path d="M530 410 c0 -5 5 -10 10 -10 6 0 10 5 10 10 0 6 -4 10 -10 10 -5 0
-10 -4 -10 -10z"/>
<path d="M1950 409 c0 -5 5 -7 10 -4 6 3 10 8 10 11 0 2 -4 4 -10 4 -5 0 -10
-5 -10 -11z"/>
<path d="M686 341 c-5 -7 6 -11 34 -11 25 0 43 -5 46 -14 3 -8 13 -12 23 -9
20 5 89 -27 115 -53 26 -25 32 -7 8 19 -49 52 -207 100 -226 68z"/>
<path d="M1701 340 c-18 -4 -37 -13 -41 -20 -4 -6 -10 -10 -14 -8 -9 5 -76
-51 -76 -64 0 -6 10 -3 23 6 46 33 100 58 118 53 10 -3 20 1 23 9 3 9 21 14
46 14 22 0 40 5 40 10 0 12 -70 12 -119 0z"/>
<path d="M916 208 c-17 -24 -22 -53 -7 -44 9 6 33 66 26 66 -2 0 -11 -10 -19
-22z"/>
<path d="M951 199 c-23 -37 -27 -54 -11 -44 14 9 43 66 36 72 -3 3 -14 -10
-25 -28z"/>
<path d="M983 202 c-11 -34 -11 -52 2 -53 12 -2 25 70 14 76 -4 3 -11 -7 -16
-23z"/>
<path d="M1498 219 c-7 -21 6 -72 19 -76 12 -4 8 50 -6 76 -7 11 -9 11 -13 0z"/>
<path d="M1526 208 c7 -25 35 -61 41 -54 6 6 -30 76 -40 76 -4 0 -5 -10 -1
-22z"/>
<path d="M1570 199 c10 -35 17 -45 26 -37 5 6 -22 68 -31 68 -2 0 0 -14 5 -31z"/>
<path d="M1020 200 c-4 -32 2 -86 12 -100 6 -10 7 -2 3 28 -5 38 -3 43 20 54
14 6 25 15 25 20 0 13 -17 9 -31 -8 -12 -14 -14 -14 -20 3 -6 13 -8 14 -9 3z"/>
<path d="M1420 201 c0 -5 7 -12 16 -15 24 -9 28 -7 14 9 -14 17 -30 20 -30 6z"/>
<path d="M1472 195 c-1 -11 -5 -38 -8 -60 -5 -31 -4 -37 5 -29 8 7 11 30 8 60
-2 27 -4 40 -5 29z"/>
<path d="M845 130 c-10 -11 -14 -20 -8 -20 5 0 20 9 33 20 16 14 19 20 8 20
-8 0 -23 -9 -33 -20z"/>
<path d="M1050 141 c0 -13 63 -25 95 -17 14 4 25 11 25 16 0 6 -11 8 -27 4
-34 -9 -42 -9 -70 0 -14 4 -23 3 -23 -3z"/>
<path d="M1333 135 c4 -12 41 -16 85 -9 52 8 37 19 -28 19 -36 0 -59 -4 -57
-10z"/>
<path d="M1620 143 c0 -4 13 -17 28 -28 l27 -19 -16 24 c-16 24 -39 38 -39 23z"/>
</g>
</svg>
